%TF.GenerationSoftware,KiCad,Pcbnew,9.0.2*%
%TF.CreationDate,2025-11-29T19:41:11+05:30*%
%TF.ProjectId,SOLDERING IRON 60W PCB,534f4c44-4552-4494-9e47-2049524f4e20,rev?*%
%TF.SameCoordinates,Original*%
%TF.FileFunction,Copper,L2,Bot*%
%TF.FilePolarity,Positive*%
%FSLAX46Y46*%
G04 Gerber Fmt 4.6, Leading zero omitted, Abs format (unit mm)*
G04 Created by KiCad (PCBNEW 9.0.2) date 2025-11-29 19:41:11*
%MOMM*%
%LPD*%
G01*
G04 APERTURE LIST*
%TA.AperFunction,ComponentPad*%
%ADD10C,2.000000*%
%TD*%
%TA.AperFunction,ViaPad*%
%ADD11C,0.700000*%
%TD*%
%TA.AperFunction,Conductor*%
%ADD12C,1.000000*%
%TD*%
%TA.AperFunction,Conductor*%
%ADD13C,0.200000*%
%TD*%
G04 APERTURE END LIST*
D10*
%TO.P,J3,1,Pin_1*%
%TO.N,Net-(J3-Pin_1)*%
X115000000Y-108000000D03*
%TD*%
%TO.P,J2,1,Pin_1*%
%TO.N,Net-(J2-Pin_1)*%
X171000000Y-108250000D03*
%TD*%
%TO.P,J4,1,Pin_1*%
%TO.N,Net-(D1-A)*%
X115000000Y-103000000D03*
%TD*%
%TO.P,J1,1,Pin_1*%
%TO.N,Net-(D1-A)*%
X171000000Y-102750000D03*
%TD*%
%TO.P,RV1,1,1*%
%TO.N,Net-(R1-Pad2)*%
X190500000Y-102500000D03*
%TO.P,RV1,2,2*%
%TO.N,Net-(J2-Pin_1)*%
X184500000Y-105500000D03*
%TO.P,RV1,3,3*%
X190500000Y-108500000D03*
%TD*%
D11*
%TO.N,Net-(J3-Pin_1)*%
X139600000Y-108000000D03*
X138600000Y-108000000D03*
%TO.N,Net-(D1-A)*%
X164000000Y-103800000D03*
X163000000Y-103800000D03*
%TO.N,Net-(J2-Pin_1)*%
X129000000Y-105200000D03*
X130400000Y-105200000D03*
X132000000Y-105200000D03*
%TD*%
D12*
%TO.N,Net-(J3-Pin_1)*%
X138600000Y-108000000D02*
X139600000Y-108000000D01*
X115000000Y-108000000D02*
X138600000Y-108000000D01*
%TO.N,Net-(D1-A)*%
X164600000Y-102200000D02*
X165600000Y-102200000D01*
X165600000Y-102200000D02*
X115800000Y-102200000D01*
D13*
X115250000Y-102750000D02*
X115000000Y-103000000D01*
D12*
X115800000Y-102200000D02*
X115250000Y-102750000D01*
X163000000Y-103800000D02*
X164600000Y-102200000D01*
X171000000Y-102750000D02*
X170450000Y-102200000D01*
X170450000Y-102200000D02*
X165600000Y-102200000D01*
%TO.N,Net-(J2-Pin_1)*%
X130200000Y-105200000D02*
X129000000Y-105200000D01*
X171000000Y-108250000D02*
X167950000Y-105200000D01*
X171250000Y-108500000D02*
X171000000Y-108250000D01*
X167950000Y-105200000D02*
X132000000Y-105200000D01*
X132000000Y-105200000D02*
X130200000Y-105200000D01*
X190500000Y-108500000D02*
X171250000Y-108500000D01*
%TD*%
M02*
