%TF.GenerationSoftware,KiCad,Pcbnew,9.0.2*%
%TF.CreationDate,2025-11-29T19:41:11+05:30*%
%TF.ProjectId,SOLDERING IRON 60W PCB,534f4c44-4552-4494-9e47-2049524f4e20,rev?*%
%TF.SameCoordinates,Original*%
%TF.FileFunction,Copper,L1,Top*%
%TF.FilePolarity,Positive*%
%FSLAX46Y46*%
G04 Gerber Fmt 4.6, Leading zero omitted, Abs format (unit mm)*
G04 Created by KiCad (PCBNEW 9.0.2) date 2025-11-29 19:41:11*
%MOMM*%
%LPD*%
G01*
G04 APERTURE LIST*
G04 Aperture macros list*
%AMRoundRect*
0 Rectangle with rounded corners*
0 $1 Rounding radius*
0 $2 $3 $4 $5 $6 $7 $8 $9 X,Y pos of 4 corners*
0 Add a 4 corners polygon primitive as box body*
4,1,4,$2,$3,$4,$5,$6,$7,$8,$9,$2,$3,0*
0 Add four circle primitives for the rounded corners*
1,1,$1+$1,$2,$3*
1,1,$1+$1,$4,$5*
1,1,$1+$1,$6,$7*
1,1,$1+$1,$8,$9*
0 Add four rect primitives between the rounded corners*
20,1,$1+$1,$2,$3,$4,$5,0*
20,1,$1+$1,$4,$5,$6,$7,0*
20,1,$1+$1,$6,$7,$8,$9,0*
20,1,$1+$1,$8,$9,$2,$3,0*%
G04 Aperture macros list end*
%TA.AperFunction,SMDPad,CuDef*%
%ADD10RoundRect,0.243750X0.456250X-0.243750X0.456250X0.243750X-0.456250X0.243750X-0.456250X-0.243750X0*%
%TD*%
%TA.AperFunction,ComponentPad*%
%ADD11C,2.000000*%
%TD*%
%TA.AperFunction,SMDPad,CuDef*%
%ADD12RoundRect,0.250000X-0.312500X-1.075000X0.312500X-1.075000X0.312500X1.075000X-0.312500X1.075000X0*%
%TD*%
%TA.AperFunction,SMDPad,CuDef*%
%ADD13RoundRect,0.250000X0.375000X0.625000X-0.375000X0.625000X-0.375000X-0.625000X0.375000X-0.625000X0*%
%TD*%
%TA.AperFunction,SMDPad,CuDef*%
%ADD14RoundRect,0.250000X1.075000X-0.312500X1.075000X0.312500X-1.075000X0.312500X-1.075000X-0.312500X0*%
%TD*%
%TA.AperFunction,SMDPad,CuDef*%
%ADD15RoundRect,0.250000X0.312500X1.075000X-0.312500X1.075000X-0.312500X-1.075000X0.312500X-1.075000X0*%
%TD*%
%TA.AperFunction,SMDPad,CuDef*%
%ADD16RoundRect,0.250000X0.850000X0.350000X-0.850000X0.350000X-0.850000X-0.350000X0.850000X-0.350000X0*%
%TD*%
%TA.AperFunction,SMDPad,CuDef*%
%ADD17RoundRect,0.249997X2.950003X2.650003X-2.950003X2.650003X-2.950003X-2.650003X2.950003X-2.650003X0*%
%TD*%
%TA.AperFunction,SMDPad,CuDef*%
%ADD18RoundRect,0.250000X-0.650000X0.325000X-0.650000X-0.325000X0.650000X-0.325000X0.650000X0.325000X0*%
%TD*%
%TA.AperFunction,ViaPad*%
%ADD19C,0.700000*%
%TD*%
%TA.AperFunction,Conductor*%
%ADD20C,1.000000*%
%TD*%
%TA.AperFunction,Conductor*%
%ADD21C,0.600000*%
%TD*%
G04 APERTURE END LIST*
D10*
%TO.P,D1,1,K*%
%TO.N,Net-(D1-K)*%
X165500000Y-106500000D03*
%TO.P,D1,2,A*%
%TO.N,Net-(D1-A)*%
X165500000Y-104625000D03*
%TD*%
D11*
%TO.P,J3,1,Pin_1*%
%TO.N,Net-(J3-Pin_1)*%
X115000000Y-108000000D03*
%TD*%
D12*
%TO.P,R3,1*%
%TO.N,Net-(J3-Pin_1)*%
X154575000Y-108000000D03*
%TO.P,R3,2*%
%TO.N,Net-(D1-K)*%
X157500000Y-108000000D03*
%TD*%
D11*
%TO.P,J2,1,Pin_1*%
%TO.N,Net-(J2-Pin_1)*%
X171000000Y-108250000D03*
%TD*%
D13*
%TO.P,D2,1,K*%
%TO.N,Net-(D2-K)*%
X142000000Y-103500000D03*
%TO.P,D2,2,A*%
%TO.N,Net-(D2-A)*%
X139200000Y-103500000D03*
%TD*%
D11*
%TO.P,J4,1,Pin_1*%
%TO.N,Net-(D1-A)*%
X115000000Y-103000000D03*
%TD*%
%TO.P,J1,1,Pin_1*%
%TO.N,Net-(D1-A)*%
X171000000Y-102750000D03*
%TD*%
%TO.P,RV1,1,1*%
%TO.N,Net-(R1-Pad2)*%
X190500000Y-102500000D03*
%TO.P,RV1,2,2*%
%TO.N,Net-(J2-Pin_1)*%
X184500000Y-105500000D03*
%TO.P,RV1,3,3*%
X190500000Y-108500000D03*
%TD*%
D14*
%TO.P,R1,1*%
%TO.N,Net-(J2-Pin_1)*%
X179000000Y-106925000D03*
%TO.P,R1,2*%
%TO.N,Net-(R1-Pad2)*%
X179000000Y-104000000D03*
%TD*%
D15*
%TO.P,R2,1*%
%TO.N,Net-(R1-Pad2)*%
X157500000Y-103000000D03*
%TO.P,R2,2*%
%TO.N,Net-(D2-K)*%
X154575000Y-103000000D03*
%TD*%
D16*
%TO.P,Q1,1,A1*%
%TO.N,Net-(J3-Pin_1)*%
X134625000Y-107755000D03*
D17*
%TO.P,Q1,2,A2*%
%TO.N,Net-(J2-Pin_1)*%
X128325000Y-105475000D03*
D16*
%TO.P,Q1,3,G*%
%TO.N,Net-(D2-A)*%
X134625000Y-103195000D03*
%TD*%
D18*
%TO.P,C1,1*%
%TO.N,Net-(D2-K)*%
X146500000Y-104050000D03*
%TO.P,C1,2*%
%TO.N,Net-(J3-Pin_1)*%
X146500000Y-107000000D03*
%TD*%
D19*
%TO.N,Net-(J3-Pin_1)*%
X139600000Y-108000000D03*
X138600000Y-108000000D03*
%TO.N,Net-(D1-A)*%
X164000000Y-103800000D03*
X163000000Y-103800000D03*
%TO.N,Net-(J2-Pin_1)*%
X129000000Y-105200000D03*
X130400000Y-105200000D03*
X132000000Y-105200000D03*
%TD*%
D20*
%TO.N,Net-(J3-Pin_1)*%
X154575000Y-108000000D02*
X147500000Y-108000000D01*
X134625000Y-107755000D02*
X134870000Y-108000000D01*
X134870000Y-108000000D02*
X145500000Y-108000000D01*
X145500000Y-108000000D02*
X146500000Y-107000000D01*
X147500000Y-108000000D02*
X146500000Y-107000000D01*
%TO.N,Net-(D2-K)*%
X147550000Y-103000000D02*
X146500000Y-104050000D01*
X142000000Y-103500000D02*
X145950000Y-103500000D01*
X145950000Y-103500000D02*
X146500000Y-104050000D01*
X154575000Y-103000000D02*
X147550000Y-103000000D01*
%TO.N,Net-(D1-A)*%
X165500000Y-104625000D02*
X164675000Y-103800000D01*
X164200000Y-103800000D02*
X164000000Y-103800000D01*
X164675000Y-103800000D02*
X164200000Y-103800000D01*
X164000000Y-103800000D02*
X163000000Y-103800000D01*
%TO.N,Net-(D1-K)*%
X157500000Y-108000000D02*
X164000000Y-108000000D01*
X164000000Y-108000000D02*
X165500000Y-106500000D01*
%TO.N,Net-(D2-A)*%
X134625000Y-103195000D02*
X138895000Y-103195000D01*
X138895000Y-103195000D02*
X139200000Y-103500000D01*
%TO.N,Net-(J2-Pin_1)*%
X187500000Y-108500000D02*
X184500000Y-105500000D01*
X179000000Y-106925000D02*
X183075000Y-106925000D01*
X190500000Y-108500000D02*
X187500000Y-108500000D01*
X183075000Y-106925000D02*
X184500000Y-105500000D01*
D21*
%TO.N,Net-(R1-Pad2)*%
X158300000Y-102200000D02*
X157500000Y-103000000D01*
X177600000Y-105400000D02*
X169800000Y-105400000D01*
X179000000Y-104000000D02*
X177600000Y-105400000D01*
D20*
X179000000Y-104000000D02*
X180500000Y-102500000D01*
D21*
X166600000Y-102200000D02*
X158300000Y-102200000D01*
D20*
X180500000Y-102500000D02*
X190500000Y-102500000D01*
D21*
X169800000Y-105400000D02*
X166600000Y-102200000D01*
%TD*%
M02*
