%TF.GenerationSoftware,KiCad,Pcbnew,9.0.2*%
%TF.CreationDate,2025-12-09T17:36:25+05:30*%
%TF.ProjectId,SOLDERING IRON 60W PCB,534f4c44-4552-4494-9e47-2049524f4e20,rev?*%
%TF.SameCoordinates,Original*%
%TF.FileFunction,Legend,Top*%
%TF.FilePolarity,Positive*%
%FSLAX46Y46*%
G04 Gerber Fmt 4.6, Leading zero omitted, Abs format (unit mm)*
G04 Created by KiCad (PCBNEW 9.0.2) date 2025-12-09 17:36:25*
%MOMM*%
%LPD*%
G01*
G04 APERTURE LIST*
G04 Aperture macros list*
%AMRoundRect*
0 Rectangle with rounded corners*
0 $1 Rounding radius*
0 $2 $3 $4 $5 $6 $7 $8 $9 X,Y pos of 4 corners*
0 Add a 4 corners polygon primitive as box body*
4,1,4,$2,$3,$4,$5,$6,$7,$8,$9,$2,$3,0*
0 Add four circle primitives for the rounded corners*
1,1,$1+$1,$2,$3*
1,1,$1+$1,$4,$5*
1,1,$1+$1,$6,$7*
1,1,$1+$1,$8,$9*
0 Add four rect primitives between the rounded corners*
20,1,$1+$1,$2,$3,$4,$5,0*
20,1,$1+$1,$4,$5,$6,$7,0*
20,1,$1+$1,$6,$7,$8,$9,0*
20,1,$1+$1,$8,$9,$2,$3,0*%
G04 Aperture macros list end*
%ADD10C,0.150000*%
%ADD11C,0.120000*%
%ADD12C,0.000000*%
%ADD13RoundRect,0.243750X0.456250X-0.243750X0.456250X0.243750X-0.456250X0.243750X-0.456250X-0.243750X0*%
%ADD14C,2.000000*%
%ADD15RoundRect,0.250000X-0.312500X-1.075000X0.312500X-1.075000X0.312500X1.075000X-0.312500X1.075000X0*%
%ADD16RoundRect,0.250000X0.375000X0.625000X-0.375000X0.625000X-0.375000X-0.625000X0.375000X-0.625000X0*%
%ADD17RoundRect,0.250000X1.075000X-0.312500X1.075000X0.312500X-1.075000X0.312500X-1.075000X-0.312500X0*%
%ADD18RoundRect,0.250000X0.312500X1.075000X-0.312500X1.075000X-0.312500X-1.075000X0.312500X-1.075000X0*%
%ADD19RoundRect,0.250000X0.850000X0.350000X-0.850000X0.350000X-0.850000X-0.350000X0.850000X-0.350000X0*%
%ADD20RoundRect,0.249997X2.950003X2.650003X-2.950003X2.650003X-2.950003X-2.650003X2.950003X-2.650003X0*%
%ADD21RoundRect,0.250000X-0.650000X0.325000X-0.650000X-0.325000X0.650000X-0.325000X0.650000X0.325000X0*%
G04 APERTURE END LIST*
D10*
X164761905Y-103454819D02*
X164761905Y-102454819D01*
X164761905Y-102454819D02*
X165000000Y-102454819D01*
X165000000Y-102454819D02*
X165142857Y-102502438D01*
X165142857Y-102502438D02*
X165238095Y-102597676D01*
X165238095Y-102597676D02*
X165285714Y-102692914D01*
X165285714Y-102692914D02*
X165333333Y-102883390D01*
X165333333Y-102883390D02*
X165333333Y-103026247D01*
X165333333Y-103026247D02*
X165285714Y-103216723D01*
X165285714Y-103216723D02*
X165238095Y-103311961D01*
X165238095Y-103311961D02*
X165142857Y-103407200D01*
X165142857Y-103407200D02*
X165000000Y-103454819D01*
X165000000Y-103454819D02*
X164761905Y-103454819D01*
X166285714Y-103454819D02*
X165714286Y-103454819D01*
X166000000Y-103454819D02*
X166000000Y-102454819D01*
X166000000Y-102454819D02*
X165904762Y-102597676D01*
X165904762Y-102597676D02*
X165809524Y-102692914D01*
X165809524Y-102692914D02*
X165714286Y-102740533D01*
X117666666Y-107454819D02*
X117666666Y-108169104D01*
X117666666Y-108169104D02*
X117619047Y-108311961D01*
X117619047Y-108311961D02*
X117523809Y-108407200D01*
X117523809Y-108407200D02*
X117380952Y-108454819D01*
X117380952Y-108454819D02*
X117285714Y-108454819D01*
X118047619Y-107454819D02*
X118666666Y-107454819D01*
X118666666Y-107454819D02*
X118333333Y-107835771D01*
X118333333Y-107835771D02*
X118476190Y-107835771D01*
X118476190Y-107835771D02*
X118571428Y-107883390D01*
X118571428Y-107883390D02*
X118619047Y-107931009D01*
X118619047Y-107931009D02*
X118666666Y-108026247D01*
X118666666Y-108026247D02*
X118666666Y-108264342D01*
X118666666Y-108264342D02*
X118619047Y-108359580D01*
X118619047Y-108359580D02*
X118571428Y-108407200D01*
X118571428Y-108407200D02*
X118476190Y-108454819D01*
X118476190Y-108454819D02*
X118190476Y-108454819D01*
X118190476Y-108454819D02*
X118095238Y-108407200D01*
X118095238Y-108407200D02*
X118047619Y-108359580D01*
X159333333Y-108454819D02*
X159000000Y-107978628D01*
X158761905Y-108454819D02*
X158761905Y-107454819D01*
X158761905Y-107454819D02*
X159142857Y-107454819D01*
X159142857Y-107454819D02*
X159238095Y-107502438D01*
X159238095Y-107502438D02*
X159285714Y-107550057D01*
X159285714Y-107550057D02*
X159333333Y-107645295D01*
X159333333Y-107645295D02*
X159333333Y-107788152D01*
X159333333Y-107788152D02*
X159285714Y-107883390D01*
X159285714Y-107883390D02*
X159238095Y-107931009D01*
X159238095Y-107931009D02*
X159142857Y-107978628D01*
X159142857Y-107978628D02*
X158761905Y-107978628D01*
X159666667Y-107454819D02*
X160285714Y-107454819D01*
X160285714Y-107454819D02*
X159952381Y-107835771D01*
X159952381Y-107835771D02*
X160095238Y-107835771D01*
X160095238Y-107835771D02*
X160190476Y-107883390D01*
X160190476Y-107883390D02*
X160238095Y-107931009D01*
X160238095Y-107931009D02*
X160285714Y-108026247D01*
X160285714Y-108026247D02*
X160285714Y-108264342D01*
X160285714Y-108264342D02*
X160238095Y-108359580D01*
X160238095Y-108359580D02*
X160190476Y-108407200D01*
X160190476Y-108407200D02*
X160095238Y-108454819D01*
X160095238Y-108454819D02*
X159809524Y-108454819D01*
X159809524Y-108454819D02*
X159714286Y-108407200D01*
X159714286Y-108407200D02*
X159666667Y-108359580D01*
X173266666Y-107854819D02*
X173266666Y-108569104D01*
X173266666Y-108569104D02*
X173219047Y-108711961D01*
X173219047Y-108711961D02*
X173123809Y-108807200D01*
X173123809Y-108807200D02*
X172980952Y-108854819D01*
X172980952Y-108854819D02*
X172885714Y-108854819D01*
X173695238Y-107950057D02*
X173742857Y-107902438D01*
X173742857Y-107902438D02*
X173838095Y-107854819D01*
X173838095Y-107854819D02*
X174076190Y-107854819D01*
X174076190Y-107854819D02*
X174171428Y-107902438D01*
X174171428Y-107902438D02*
X174219047Y-107950057D01*
X174219047Y-107950057D02*
X174266666Y-108045295D01*
X174266666Y-108045295D02*
X174266666Y-108140533D01*
X174266666Y-108140533D02*
X174219047Y-108283390D01*
X174219047Y-108283390D02*
X173647619Y-108854819D01*
X173647619Y-108854819D02*
X174266666Y-108854819D01*
X139861905Y-105954819D02*
X139861905Y-104954819D01*
X139861905Y-104954819D02*
X140100000Y-104954819D01*
X140100000Y-104954819D02*
X140242857Y-105002438D01*
X140242857Y-105002438D02*
X140338095Y-105097676D01*
X140338095Y-105097676D02*
X140385714Y-105192914D01*
X140385714Y-105192914D02*
X140433333Y-105383390D01*
X140433333Y-105383390D02*
X140433333Y-105526247D01*
X140433333Y-105526247D02*
X140385714Y-105716723D01*
X140385714Y-105716723D02*
X140338095Y-105811961D01*
X140338095Y-105811961D02*
X140242857Y-105907200D01*
X140242857Y-105907200D02*
X140100000Y-105954819D01*
X140100000Y-105954819D02*
X139861905Y-105954819D01*
X140814286Y-105050057D02*
X140861905Y-105002438D01*
X140861905Y-105002438D02*
X140957143Y-104954819D01*
X140957143Y-104954819D02*
X141195238Y-104954819D01*
X141195238Y-104954819D02*
X141290476Y-105002438D01*
X141290476Y-105002438D02*
X141338095Y-105050057D01*
X141338095Y-105050057D02*
X141385714Y-105145295D01*
X141385714Y-105145295D02*
X141385714Y-105240533D01*
X141385714Y-105240533D02*
X141338095Y-105383390D01*
X141338095Y-105383390D02*
X140766667Y-105954819D01*
X140766667Y-105954819D02*
X141385714Y-105954819D01*
X178833333Y-102654819D02*
X178500000Y-102178628D01*
X178261905Y-102654819D02*
X178261905Y-101654819D01*
X178261905Y-101654819D02*
X178642857Y-101654819D01*
X178642857Y-101654819D02*
X178738095Y-101702438D01*
X178738095Y-101702438D02*
X178785714Y-101750057D01*
X178785714Y-101750057D02*
X178833333Y-101845295D01*
X178833333Y-101845295D02*
X178833333Y-101988152D01*
X178833333Y-101988152D02*
X178785714Y-102083390D01*
X178785714Y-102083390D02*
X178738095Y-102131009D01*
X178738095Y-102131009D02*
X178642857Y-102178628D01*
X178642857Y-102178628D02*
X178261905Y-102178628D01*
X179785714Y-102654819D02*
X179214286Y-102654819D01*
X179500000Y-102654819D02*
X179500000Y-101654819D01*
X179500000Y-101654819D02*
X179404762Y-101797676D01*
X179404762Y-101797676D02*
X179309524Y-101892914D01*
X179309524Y-101892914D02*
X179214286Y-101940533D01*
X159333333Y-103454819D02*
X159000000Y-102978628D01*
X158761905Y-103454819D02*
X158761905Y-102454819D01*
X158761905Y-102454819D02*
X159142857Y-102454819D01*
X159142857Y-102454819D02*
X159238095Y-102502438D01*
X159238095Y-102502438D02*
X159285714Y-102550057D01*
X159285714Y-102550057D02*
X159333333Y-102645295D01*
X159333333Y-102645295D02*
X159333333Y-102788152D01*
X159333333Y-102788152D02*
X159285714Y-102883390D01*
X159285714Y-102883390D02*
X159238095Y-102931009D01*
X159238095Y-102931009D02*
X159142857Y-102978628D01*
X159142857Y-102978628D02*
X158761905Y-102978628D01*
X159714286Y-102550057D02*
X159761905Y-102502438D01*
X159761905Y-102502438D02*
X159857143Y-102454819D01*
X159857143Y-102454819D02*
X160095238Y-102454819D01*
X160095238Y-102454819D02*
X160190476Y-102502438D01*
X160190476Y-102502438D02*
X160238095Y-102550057D01*
X160238095Y-102550057D02*
X160285714Y-102645295D01*
X160285714Y-102645295D02*
X160285714Y-102740533D01*
X160285714Y-102740533D02*
X160238095Y-102883390D01*
X160238095Y-102883390D02*
X159666667Y-103454819D01*
X159666667Y-103454819D02*
X160285714Y-103454819D01*
X123404761Y-105550057D02*
X123309523Y-105502438D01*
X123309523Y-105502438D02*
X123214285Y-105407200D01*
X123214285Y-105407200D02*
X123071428Y-105264342D01*
X123071428Y-105264342D02*
X122976190Y-105216723D01*
X122976190Y-105216723D02*
X122880952Y-105216723D01*
X122928571Y-105454819D02*
X122833333Y-105407200D01*
X122833333Y-105407200D02*
X122738095Y-105311961D01*
X122738095Y-105311961D02*
X122690476Y-105121485D01*
X122690476Y-105121485D02*
X122690476Y-104788152D01*
X122690476Y-104788152D02*
X122738095Y-104597676D01*
X122738095Y-104597676D02*
X122833333Y-104502438D01*
X122833333Y-104502438D02*
X122928571Y-104454819D01*
X122928571Y-104454819D02*
X123119047Y-104454819D01*
X123119047Y-104454819D02*
X123214285Y-104502438D01*
X123214285Y-104502438D02*
X123309523Y-104597676D01*
X123309523Y-104597676D02*
X123357142Y-104788152D01*
X123357142Y-104788152D02*
X123357142Y-105121485D01*
X123357142Y-105121485D02*
X123309523Y-105311961D01*
X123309523Y-105311961D02*
X123214285Y-105407200D01*
X123214285Y-105407200D02*
X123119047Y-105454819D01*
X123119047Y-105454819D02*
X122928571Y-105454819D01*
X124309523Y-105454819D02*
X123738095Y-105454819D01*
X124023809Y-105454819D02*
X124023809Y-104454819D01*
X124023809Y-104454819D02*
X123928571Y-104597676D01*
X123928571Y-104597676D02*
X123833333Y-104692914D01*
X123833333Y-104692914D02*
X123738095Y-104740533D01*
X146333333Y-102359580D02*
X146285714Y-102407200D01*
X146285714Y-102407200D02*
X146142857Y-102454819D01*
X146142857Y-102454819D02*
X146047619Y-102454819D01*
X146047619Y-102454819D02*
X145904762Y-102407200D01*
X145904762Y-102407200D02*
X145809524Y-102311961D01*
X145809524Y-102311961D02*
X145761905Y-102216723D01*
X145761905Y-102216723D02*
X145714286Y-102026247D01*
X145714286Y-102026247D02*
X145714286Y-101883390D01*
X145714286Y-101883390D02*
X145761905Y-101692914D01*
X145761905Y-101692914D02*
X145809524Y-101597676D01*
X145809524Y-101597676D02*
X145904762Y-101502438D01*
X145904762Y-101502438D02*
X146047619Y-101454819D01*
X146047619Y-101454819D02*
X146142857Y-101454819D01*
X146142857Y-101454819D02*
X146285714Y-101502438D01*
X146285714Y-101502438D02*
X146333333Y-101550057D01*
X147285714Y-102454819D02*
X146714286Y-102454819D01*
X147000000Y-102454819D02*
X147000000Y-101454819D01*
X147000000Y-101454819D02*
X146904762Y-101597676D01*
X146904762Y-101597676D02*
X146809524Y-101692914D01*
X146809524Y-101692914D02*
X146714286Y-101740533D01*
X117666666Y-102454819D02*
X117666666Y-103169104D01*
X117666666Y-103169104D02*
X117619047Y-103311961D01*
X117619047Y-103311961D02*
X117523809Y-103407200D01*
X117523809Y-103407200D02*
X117380952Y-103454819D01*
X117380952Y-103454819D02*
X117285714Y-103454819D01*
X118571428Y-102788152D02*
X118571428Y-103454819D01*
X118333333Y-102407200D02*
X118095238Y-103121485D01*
X118095238Y-103121485D02*
X118714285Y-103121485D01*
X173266666Y-102254819D02*
X173266666Y-102969104D01*
X173266666Y-102969104D02*
X173219047Y-103111961D01*
X173219047Y-103111961D02*
X173123809Y-103207200D01*
X173123809Y-103207200D02*
X172980952Y-103254819D01*
X172980952Y-103254819D02*
X172885714Y-103254819D01*
X174266666Y-103254819D02*
X173695238Y-103254819D01*
X173980952Y-103254819D02*
X173980952Y-102254819D01*
X173980952Y-102254819D02*
X173885714Y-102397676D01*
X173885714Y-102397676D02*
X173790476Y-102492914D01*
X173790476Y-102492914D02*
X173695238Y-102540533D01*
X193404761Y-106054819D02*
X193071428Y-105578628D01*
X192833333Y-106054819D02*
X192833333Y-105054819D01*
X192833333Y-105054819D02*
X193214285Y-105054819D01*
X193214285Y-105054819D02*
X193309523Y-105102438D01*
X193309523Y-105102438D02*
X193357142Y-105150057D01*
X193357142Y-105150057D02*
X193404761Y-105245295D01*
X193404761Y-105245295D02*
X193404761Y-105388152D01*
X193404761Y-105388152D02*
X193357142Y-105483390D01*
X193357142Y-105483390D02*
X193309523Y-105531009D01*
X193309523Y-105531009D02*
X193214285Y-105578628D01*
X193214285Y-105578628D02*
X192833333Y-105578628D01*
X193690476Y-105054819D02*
X194023809Y-106054819D01*
X194023809Y-106054819D02*
X194357142Y-105054819D01*
X195214285Y-106054819D02*
X194642857Y-106054819D01*
X194928571Y-106054819D02*
X194928571Y-105054819D01*
X194928571Y-105054819D02*
X194833333Y-105197676D01*
X194833333Y-105197676D02*
X194738095Y-105292914D01*
X194738095Y-105292914D02*
X194642857Y-105340533D01*
D11*
%TO.C,D1*%
X166460000Y-107247500D02*
X166460000Y-104562500D01*
X164540000Y-107247500D02*
X166460000Y-107247500D01*
X164540000Y-104562500D02*
X164540000Y-107247500D01*
%TO.C,J3*%
X116251000Y-108000000D02*
G75*
G02*
X113749000Y-108000000I-1251000J0D01*
G01*
X113749000Y-108000000D02*
G75*
G02*
X116251000Y-108000000I1251000J0D01*
G01*
%TO.C,R3*%
X155313763Y-109355000D02*
X156761237Y-109355000D01*
X155313763Y-106645000D02*
X156761237Y-106645000D01*
%TO.C,J2*%
X172251000Y-108250000D02*
G75*
G02*
X169749000Y-108250000I-1251000J0D01*
G01*
X169749000Y-108250000D02*
G75*
G02*
X172251000Y-108250000I1251000J0D01*
G01*
%TO.C,D2*%
X142885000Y-104635000D02*
X142885000Y-102365000D01*
X142885000Y-102365000D02*
X139000000Y-102365000D01*
X139000000Y-104635000D02*
X142885000Y-104635000D01*
%TO.C,R1*%
X180355000Y-106186237D02*
X180355000Y-104738763D01*
X177645000Y-106186237D02*
X177645000Y-104738763D01*
%TO.C,R2*%
X156761237Y-104355000D02*
X155313763Y-104355000D01*
X156761237Y-101645000D02*
X155313763Y-101645000D01*
%TO.C,Q1*%
X134965000Y-109085000D02*
X134285000Y-109085000D01*
X134625000Y-108615000D01*
X134965000Y-109085000D01*
G36*
X134965000Y-109085000D02*
G01*
X134285000Y-109085000D01*
X134625000Y-108615000D01*
X134965000Y-109085000D01*
G37*
X132895000Y-108925000D02*
X132895000Y-108655000D01*
X132895000Y-102025000D02*
X132895000Y-102295000D01*
X126475000Y-108925000D02*
X132895000Y-108925000D01*
X126475000Y-102025000D02*
X132895000Y-102025000D01*
%TO.C,C1*%
X147410000Y-104813748D02*
X147410000Y-106236252D01*
X145590000Y-104813748D02*
X145590000Y-106236252D01*
%TO.C,J4*%
X116251000Y-103000000D02*
G75*
G02*
X113749000Y-103000000I-1251000J0D01*
G01*
X113749000Y-103000000D02*
G75*
G02*
X116251000Y-103000000I1251000J0D01*
G01*
D12*
%TO.C,G\u002A\u002A\u002A*%
G36*
X103167260Y-104677527D02*
G01*
X103394238Y-104688984D01*
X103562579Y-104706232D01*
X103650927Y-104727504D01*
X103757011Y-104823279D01*
X103831041Y-104985401D01*
X103875615Y-105223515D01*
X103893333Y-105547265D01*
X103893885Y-105628997D01*
X103892100Y-105859482D01*
X103884959Y-106005931D01*
X103869788Y-106084470D01*
X103843910Y-106111224D01*
X103814640Y-106106543D01*
X103701783Y-106078993D01*
X103664344Y-106076134D01*
X103629783Y-106055611D01*
X103608039Y-105983426D01*
X103596685Y-105843657D01*
X103593297Y-105620382D01*
X103593293Y-105609772D01*
X103591229Y-105356046D01*
X103574737Y-105180227D01*
X103528368Y-105068559D01*
X103436674Y-105007288D01*
X103284205Y-104982659D01*
X103055513Y-104980916D01*
X102891303Y-104984737D01*
X102315779Y-104999014D01*
X102301563Y-105567977D01*
X102299803Y-105873415D01*
X102312069Y-106083268D01*
X102338248Y-106195875D01*
X102345271Y-106206735D01*
X102408803Y-106242577D01*
X102536898Y-106264805D01*
X102743474Y-106275204D01*
X102889697Y-106276528D01*
X103132956Y-106280592D01*
X103287536Y-106293741D01*
X103364664Y-106317414D01*
X103378582Y-106339152D01*
X103398996Y-106437706D01*
X103417341Y-106489448D01*
X103425577Y-106527958D01*
X103401356Y-106553033D01*
X103328683Y-106567334D01*
X103191565Y-106573526D01*
X102974008Y-106574270D01*
X102909797Y-106573945D01*
X102675714Y-106568750D01*
X102470301Y-106557206D01*
X102319624Y-106541173D01*
X102258516Y-106527443D01*
X102157234Y-106473925D01*
X102084561Y-106397379D01*
X102036008Y-106282068D01*
X102007085Y-106112259D01*
X101993304Y-105872217D01*
X101990138Y-105586658D01*
X101990818Y-105316373D01*
X101994967Y-105127448D01*
X102005744Y-105001044D01*
X102026306Y-104918325D01*
X102059815Y-104860453D01*
X102109428Y-104808591D01*
X102122700Y-104796227D01*
X102182438Y-104745744D01*
X102246168Y-104711385D01*
X102333510Y-104690061D01*
X102464085Y-104678678D01*
X102657512Y-104674147D01*
X102902522Y-104673373D01*
X103167260Y-104677527D01*
G37*
G36*
X111532431Y-104892634D02*
G01*
X111751872Y-104951501D01*
X111890316Y-105053762D01*
X111953902Y-105202815D01*
X111959763Y-105279842D01*
X111926728Y-105405187D01*
X111875538Y-105484980D01*
X111821476Y-105558087D01*
X111841921Y-105609843D01*
X111900587Y-105654587D01*
X111991139Y-105772710D01*
X112016592Y-105930379D01*
X111978361Y-106092202D01*
X111877862Y-106222791D01*
X111877859Y-106222794D01*
X111792414Y-106276342D01*
X111686178Y-106308077D01*
X111531951Y-106323121D01*
X111326774Y-106326627D01*
X110907692Y-106326627D01*
X110907692Y-105900789D01*
X111258382Y-105900789D01*
X111266872Y-106018665D01*
X111309246Y-106067010D01*
X111405099Y-106076134D01*
X111539941Y-106050108D01*
X111630444Y-105997507D01*
X111682858Y-105895920D01*
X111649891Y-105804002D01*
X111545864Y-105741380D01*
X111431965Y-105725444D01*
X111315612Y-105733315D01*
X111267894Y-105777407D01*
X111258401Y-105888438D01*
X111258382Y-105900789D01*
X110907692Y-105900789D01*
X110907692Y-105600197D01*
X110907692Y-105324655D01*
X111258382Y-105324655D01*
X111270851Y-105431152D01*
X111329273Y-105470396D01*
X111406915Y-105474951D01*
X111545834Y-105441752D01*
X111604965Y-105382428D01*
X111621944Y-105275927D01*
X111552239Y-105202899D01*
X111406829Y-105174416D01*
X111398658Y-105174359D01*
X111299036Y-105188029D01*
X111262380Y-105250036D01*
X111258382Y-105324655D01*
X110907692Y-105324655D01*
X110907692Y-104873767D01*
X111225857Y-104873767D01*
X111532431Y-104892634D01*
G37*
G36*
X110386792Y-104903693D02*
G01*
X110498901Y-104927233D01*
X110584469Y-104982803D01*
X110661308Y-105062427D01*
X110774387Y-105217493D01*
X110807258Y-105334618D01*
X110759888Y-105405976D01*
X110662960Y-105424852D01*
X110514885Y-105382789D01*
X110436362Y-105299605D01*
X110318741Y-105199935D01*
X110169944Y-105175817D01*
X110027800Y-105230152D01*
X109989227Y-105265319D01*
X109900152Y-105422262D01*
X109870519Y-105607579D01*
X109896397Y-105791151D01*
X109973857Y-105942860D01*
X110088888Y-106029010D01*
X110234171Y-106046218D01*
X110374178Y-106005212D01*
X110466599Y-105919679D01*
X110473448Y-105904627D01*
X110537024Y-105844338D01*
X110639747Y-105822418D01*
X110741506Y-105837818D01*
X110802187Y-105889493D01*
X110806381Y-105913313D01*
X110764477Y-106037891D01*
X110660752Y-106168885D01*
X110524019Y-106269998D01*
X110522721Y-106270665D01*
X110345593Y-106318706D01*
X110129605Y-106319726D01*
X109922911Y-106276386D01*
X109826579Y-106232168D01*
X109673328Y-106093460D01*
X109585860Y-105898467D01*
X109559972Y-105635789D01*
X109564895Y-105522758D01*
X109586115Y-105336891D01*
X109627176Y-105210870D01*
X109703920Y-105104424D01*
X109747233Y-105059229D01*
X109848777Y-104968131D01*
X109945131Y-104919963D01*
X110074921Y-104901376D01*
X110211384Y-104898816D01*
X110386792Y-104903693D01*
G37*
G36*
X107507115Y-105233462D02*
G01*
X107551083Y-105255128D01*
X107551084Y-105255252D01*
X107528937Y-105312761D01*
X107471775Y-105428973D01*
X107415558Y-105535052D01*
X107280033Y-105784057D01*
X107415558Y-106025152D01*
X107490367Y-106163283D01*
X107539588Y-106263851D01*
X107551084Y-106296437D01*
X107507429Y-106317523D01*
X107402046Y-106326619D01*
X107398458Y-106326627D01*
X107270272Y-106300737D01*
X107178136Y-106206053D01*
X107160490Y-106176648D01*
X107085557Y-106061719D01*
X107031615Y-106038848D01*
X106980161Y-106108008D01*
X106949901Y-106176331D01*
X106886818Y-106283041D01*
X106792364Y-106322901D01*
X106718379Y-106326627D01*
X106604861Y-106318304D01*
X106550031Y-106297932D01*
X106549112Y-106294594D01*
X106573377Y-106237490D01*
X106635875Y-106124283D01*
X106694403Y-106026432D01*
X106839695Y-105790303D01*
X106695258Y-105544954D01*
X106616226Y-105404803D01*
X106563403Y-105299836D01*
X106549966Y-105262031D01*
X106592953Y-105235806D01*
X106697932Y-105224469D01*
X106701738Y-105224457D01*
X106829924Y-105250348D01*
X106922060Y-105345031D01*
X106939706Y-105374437D01*
X107016573Y-105489812D01*
X107076233Y-105512163D01*
X107138640Y-105441519D01*
X107175345Y-105374753D01*
X107258173Y-105263260D01*
X107370434Y-105225466D01*
X107402075Y-105224457D01*
X107507115Y-105233462D01*
G37*
G36*
X106270169Y-105269857D02*
G01*
X106426183Y-105388834D01*
X106540930Y-105555559D01*
X106582456Y-105687870D01*
X106612321Y-105875740D01*
X106228263Y-105875740D01*
X106035673Y-105877208D01*
X105925514Y-105885205D01*
X105880026Y-105905115D01*
X105881449Y-105942323D01*
X105897830Y-105975937D01*
X105978336Y-106047642D01*
X106092097Y-106076444D01*
X106193274Y-106055290D01*
X106223471Y-106026035D01*
X106290626Y-105986699D01*
X106395946Y-105976250D01*
X106496200Y-105992634D01*
X106548154Y-106033797D01*
X106549112Y-106041509D01*
X106503300Y-106167455D01*
X106380245Y-106266387D01*
X106201514Y-106327896D01*
X105988676Y-106341571D01*
X105937203Y-106336860D01*
X105779470Y-106271570D01*
X105648478Y-106134357D01*
X105565422Y-105953342D01*
X105547139Y-105819309D01*
X105582791Y-105586537D01*
X105918839Y-105586537D01*
X105924747Y-105645029D01*
X106024160Y-105673754D01*
X106069000Y-105675345D01*
X106186566Y-105664537D01*
X106246546Y-105637885D01*
X106248520Y-105631381D01*
X106206588Y-105547070D01*
X106112803Y-105495949D01*
X106015176Y-105503089D01*
X106009334Y-105506484D01*
X105918839Y-105586537D01*
X105582791Y-105586537D01*
X105585675Y-105567707D01*
X105696755Y-105379833D01*
X105873586Y-105262999D01*
X106099791Y-105224457D01*
X106270169Y-105269857D01*
G37*
G36*
X108052070Y-105051442D02*
G01*
X108063611Y-105171313D01*
X108108495Y-105219186D01*
X108152268Y-105224457D01*
X108230839Y-105253812D01*
X108252465Y-105349704D01*
X108228982Y-105447918D01*
X108152268Y-105474951D01*
X108094745Y-105486709D01*
X108064559Y-105537708D01*
X108053276Y-105651533D01*
X108052070Y-105755183D01*
X108057757Y-105920975D01*
X108080043Y-106012078D01*
X108126770Y-106053616D01*
X108147296Y-106060318D01*
X108229739Y-106124412D01*
X108265595Y-106205923D01*
X108270769Y-106284651D01*
X108228582Y-106318808D01*
X108113878Y-106326597D01*
X108098800Y-106326627D01*
X107950060Y-106306207D01*
X107838876Y-106255681D01*
X107830205Y-106247901D01*
X107779624Y-106151556D01*
X107755026Y-105981428D01*
X107751479Y-105845539D01*
X107744593Y-105653029D01*
X107721355Y-105541794D01*
X107677899Y-105493691D01*
X107676331Y-105493068D01*
X107617937Y-105426018D01*
X107601183Y-105344344D01*
X107628294Y-105247637D01*
X107676331Y-105224457D01*
X107740021Y-105183447D01*
X107751795Y-105136785D01*
X107792236Y-105054299D01*
X107890356Y-104970715D01*
X107902091Y-104963770D01*
X108052070Y-104878427D01*
X108052070Y-105051442D01*
G37*
G36*
X108791025Y-104883690D02*
G01*
X109060439Y-104911590D01*
X109248837Y-104963209D01*
X109374081Y-105046062D01*
X109451267Y-105161491D01*
X109501584Y-105373713D01*
X109463546Y-105567477D01*
X109348967Y-105726553D01*
X109169665Y-105834709D01*
X108937455Y-105875715D01*
X108931284Y-105875740D01*
X108822017Y-105880417D01*
X108770276Y-105912628D01*
X108754549Y-105999644D01*
X108753451Y-106101183D01*
X108749708Y-106239706D01*
X108724339Y-106305301D01*
X108656135Y-106325237D01*
X108578106Y-106326627D01*
X108402761Y-106326627D01*
X108402761Y-105593760D01*
X108402761Y-105399803D01*
X108753451Y-105399803D01*
X108759132Y-105539347D01*
X108784975Y-105605154D01*
X108844184Y-105623440D01*
X108866173Y-105623653D01*
X108998896Y-105592685D01*
X109066567Y-105555507D01*
X109148973Y-105446310D01*
X109148438Y-105329846D01*
X109076631Y-105231847D01*
X108945221Y-105178042D01*
X108893727Y-105174359D01*
X108807392Y-105181839D01*
X108766495Y-105222348D01*
X108754170Y-105322992D01*
X108753451Y-105399803D01*
X108402761Y-105399803D01*
X108402761Y-104860893D01*
X108791025Y-104883690D01*
G37*
G36*
X102692299Y-105134035D02*
G01*
X102733716Y-105183615D01*
X102741617Y-105299605D01*
X102749372Y-105417127D01*
X102793127Y-105465324D01*
X102903616Y-105474929D01*
X102916962Y-105474951D01*
X103034484Y-105467195D01*
X103082680Y-105423440D01*
X103092285Y-105312952D01*
X103092307Y-105299605D01*
X103100686Y-105181798D01*
X103143183Y-105133478D01*
X103242603Y-105124260D01*
X103392899Y-105124260D01*
X103392899Y-105600197D01*
X103392899Y-106076134D01*
X103242603Y-106076134D01*
X103136148Y-106063720D01*
X103096911Y-106005164D01*
X103092307Y-105925838D01*
X103082532Y-105824860D01*
X103032952Y-105783443D01*
X102916962Y-105775542D01*
X102799154Y-105783921D01*
X102750835Y-105826418D01*
X102741617Y-105925838D01*
X102729203Y-106032293D01*
X102670646Y-106071530D01*
X102591321Y-106076134D01*
X102441025Y-106076134D01*
X102441025Y-105600197D01*
X102441025Y-105124260D01*
X102591321Y-105124260D01*
X102692299Y-105134035D01*
G37*
G36*
X105497041Y-105600197D02*
G01*
X105497041Y-106326627D01*
X105355049Y-106326627D01*
X105280763Y-106315374D01*
X105208316Y-106271658D01*
X105122220Y-106180539D01*
X105006983Y-106027080D01*
X104929211Y-105915963D01*
X104645364Y-105505300D01*
X104645364Y-105915963D01*
X104645364Y-106326627D01*
X104470019Y-106326627D01*
X104294674Y-106326627D01*
X104294674Y-105600197D01*
X104294674Y-104873767D01*
X104432445Y-104873771D01*
X104503431Y-104885439D01*
X104574722Y-104930033D01*
X104660707Y-105021941D01*
X104775776Y-105175554D01*
X104870808Y-105312134D01*
X105171400Y-105750493D01*
X105185875Y-105312130D01*
X105200350Y-104873767D01*
X105348695Y-104873767D01*
X105497041Y-104873767D01*
X105497041Y-105600197D01*
G37*
G36*
X103717889Y-106146642D02*
G01*
X103811981Y-106194491D01*
X103842982Y-106294253D01*
X103843786Y-106325819D01*
X103808349Y-106467134D01*
X103746883Y-106525259D01*
X103661639Y-106567132D01*
X103605245Y-106563904D01*
X103530670Y-106523009D01*
X103459492Y-106431503D01*
X103448978Y-106305772D01*
X103500911Y-106192663D01*
X103517495Y-106176871D01*
X103625774Y-106139448D01*
X103717889Y-106146642D01*
G37*
D11*
%TO.C,J1*%
X172251000Y-102750000D02*
G75*
G02*
X169749000Y-102750000I-1251000J0D01*
G01*
X169749000Y-102750000D02*
G75*
G02*
X172251000Y-102750000I1251000J0D01*
G01*
%TO.C,RV1*%
X190590784Y-103439479D02*
G75*
G02*
X190630347Y-107499905I-3090784J-2060521D01*
G01*
X189149392Y-108798785D02*
G75*
G02*
X184001111Y-106666298I-1649392J3298785D01*
G01*
X184074300Y-104031842D02*
G75*
G02*
X189349134Y-102264013I3425700J-1468158D01*
G01*
%TD*%
%LPC*%
D13*
%TO.C,D1*%
X165500000Y-104625000D03*
X165500000Y-106500000D03*
%TD*%
D14*
%TO.C,J3*%
X115000000Y-108000000D03*
%TD*%
D15*
%TO.C,R3*%
X157500000Y-108000000D03*
X154575000Y-108000000D03*
%TD*%
D14*
%TO.C,J2*%
X171000000Y-108250000D03*
%TD*%
D16*
%TO.C,D2*%
X139200000Y-103500000D03*
X142000000Y-103500000D03*
%TD*%
D17*
%TO.C,R1*%
X179000000Y-104000000D03*
X179000000Y-106925000D03*
%TD*%
D18*
%TO.C,R2*%
X154575000Y-103000000D03*
X157500000Y-103000000D03*
%TD*%
D19*
%TO.C,Q1*%
X134625000Y-103195000D03*
D20*
X128325000Y-105475000D03*
D19*
X134625000Y-107755000D03*
%TD*%
D21*
%TO.C,C1*%
X146500000Y-107000000D03*
X146500000Y-104050000D03*
%TD*%
D14*
%TO.C,J4*%
X115000000Y-103000000D03*
%TD*%
%TO.C,J1*%
X171000000Y-102750000D03*
%TD*%
%TO.C,RV1*%
X190500000Y-108500000D03*
X184500000Y-105500000D03*
X190500000Y-102500000D03*
%TD*%
%LPD*%
M02*
